<?xml version="1.0" encoding="utf-8"?>
<!-- Generator: Adobe Illustrator 27.7.0, SVG Export Plug-In . SVG Version: 6.00 Build 0)  -->
<svg version="1.1" id="Layer_1" xmlns="http://www.w3.org/2000/svg" xmlns:xlink="http://www.w3.org/1999/xlink" x="0px" y="0px"
	 viewBox="0 0 130 55" style="enable-background:new 0 0 130 55;" xml:space="preserve">
<style type="text/css">
	.st0{fill:#00836C;}
</style>
<g>
	<path class="st0" d="M97.85,10.65h4.67V31h-4.67V10.65L97.85,10.65z"/>
	<path class="st0" d="M61.64,10.59c-1.55-0.81-3.26-1.32-5.22-1.32c-5.97,0-10.81,4.86-10.81,10.87S50.45,31,56.42,31
		c2.33,0,4.49-0.74,6.26-2.01v1.76h4.57V12.18c-0.84-0.08-1.73-0.25-2.5-0.46C63.01,11.26,61.64,10.59,61.64,10.59L61.64,10.59z
		 M56.38,26.16c-3.36,0-6.08-2.74-6.08-6.11s2.72-6.11,6.08-6.11c3.36,0,6.08,2.74,6.08,6.11C62.46,23.43,59.74,26.16,56.38,26.16z"
		/>
	<path class="st0" d="M17.1,10.59c-1.55-0.81-3.26-1.32-5.22-1.32c-5.97,0-10.81,4.86-10.81,10.87S5.9,31,11.88,31
		c2.33,0,4.49-0.74,6.26-2.01v1.76h4.57V12.18c-0.84-0.08-1.73-0.25-2.5-0.46C18.46,11.26,17.1,10.59,17.1,10.59L17.1,10.59z
		 M11.83,26.16c-3.36,0-6.08-2.74-6.08-6.11s2.72-6.11,6.08-6.11s6.08,2.74,6.08,6.11C17.91,23.43,15.19,26.16,11.83,26.16z"/>
	<path class="st0" d="M88.21,0.32v11.03c-0.1-0.04-0.19-0.07-0.29-0.11c-1.76-1.24-3.9-1.98-6.22-1.98
		c-5.97,0-10.81,4.86-10.81,10.87S75.73,31,81.7,31c2.33,0,4.49-0.74,6.26-2.01v1.76h4.57V16.75l0,0V0.32L88.21,0.32L88.21,0.32z
		 M81.65,25.98c-3.36,0-6.08-2.74-6.08-6.11s2.72-6.11,6.08-6.11c3.36,0,6.08,2.74,6.08,6.11S85.01,25.98,81.65,25.98z"/>
	<ellipse class="st0" cx="100.18" cy="6.22" rx="3.03" ry="3.05"/>
	<path class="st0" d="M40.44,9.69c-1.07-0.36-2.22-0.55-3.41-0.55C31.05,9.14,26.21,14,26.21,20s4.84,10.87,10.81,10.87
		c2.92,0,5.57-1.16,7.51-3.05c-1-1.52-1.71-3.24-2.07-5.1c-1,2.01-3.06,3.4-5.44,3.4c-3.36,0-6.08-2.74-6.08-6.11
		s2.72-6.11,6.08-6.11c2.39,0,4.45,1.38,5.44,3.4c0.36-1.85,1.07-3.57,2.06-5.09c0,0,0.32-0.49,0.47-0.69c0,0-1.57-0.4-2.7-0.98
		C41.27,9.99,40.44,9.69,40.44,9.69L40.44,9.69z"/>
	<path class="st0" d="M122.82,10.59c-1.55-0.81-3.26-1.32-5.22-1.32c-5.97,0-10.81,4.86-10.81,10.87S111.63,31,117.6,31
		c2.33,0,4.49-0.74,6.26-2.01v1.76h4.57V12.18c-0.84-0.08-1.73-0.25-2.5-0.46C124.19,11.26,122.82,10.59,122.82,10.59L122.82,10.59z
		 M117.55,26.16c-3.36,0-6.08-2.74-6.08-6.11s2.72-6.11,6.08-6.11c3.36,0,6.08,2.74,6.08,6.11
		C123.64,23.43,120.92,26.16,117.55,26.16z"/>
</g>
<g>
	<path d="M9.92,53.99l-0.95-2.4H3.5l-0.95,2.4H1.06l4.33-10.83h1.66l4.35,10.83H9.92L9.92,53.99z M6.23,44.37l-2.34,6.02h4.67
		L6.23,44.37L6.23,44.37z"/>
	<path d="M18.02,53.99v-5.13c0-1.38-0.7-1.82-1.75-1.82c-0.95,0-1.86,0.58-2.31,1.22v5.73h-1.21v-7.84h1.21v1.14
		c0.55-0.65,1.62-1.33,2.78-1.33c1.63,0,2.49,0.83,2.49,2.53v5.5L18.02,53.99L18.02,53.99z"/>
	<path d="M25.87,53.99V43.17h1.34v9.63h5.01v1.2L25.87,53.99L25.87,53.99z"/>
	<path d="M34.29,51.45c0.71,0.8,1.87,1.54,3.39,1.54c1.92,0,2.54-1.04,2.54-1.87c0-1.3-1.31-1.66-2.73-2.05
		c-1.73-0.45-3.65-0.94-3.65-3.07c0-1.79,1.58-3,3.7-3c1.65,0,2.93,0.55,3.83,1.51l-0.81,0.99c-0.81-0.89-1.94-1.3-3.12-1.3
		c-1.29,0-2.21,0.7-2.21,1.72c0,1.09,1.24,1.41,2.62,1.79c1.76,0.47,3.77,1.02,3.77,3.3c0,1.57-1.07,3.18-3.98,3.18
		c-1.87,0-3.25-0.71-4.14-1.72L34.29,51.45L34.29,51.45z"/>
	<path d="M43.56,53.99V43.17h7.06v1.2H44.9v3.49h5.61v1.2H44.9v3.73h5.72V54L43.56,53.99L43.56,53.99z"/>
	<path d="M57.63,42.99c1.91,0,3.23,0.84,4.19,2.03l-1.07,0.67c-0.68-0.88-1.83-1.49-3.12-1.49c-2.36,0-4.15,1.82-4.15,4.4
		S55.27,53,57.63,53c1.29,0,2.36-0.63,2.89-1.17v-2.21h-3.7v-1.2h5.04v3.91c-1,1.12-2.47,1.87-4.23,1.87
		c-3.07,0-5.54-2.26-5.54-5.62C52.09,45.23,54.56,42.99,57.63,42.99L57.63,42.99z"/>
	<path d="M68.21,53.99V43.17h4.8c1.87,0,3.02,1.14,3.02,2.76c0,1.36-0.9,2.27-1.89,2.48c1.15,0.18,2.1,1.36,2.1,2.66
		c0,1.74-1.15,2.92-3.12,2.92H68.21L68.21,53.99z M69.55,47.86h3.23c1.21,0,1.86-0.75,1.86-1.74s-0.65-1.75-1.86-1.75h-3.23V47.86z
		 M69.55,52.79h3.3c1.26,0,2-0.71,2-1.87c0-0.99-0.68-1.87-2-1.87h-3.3V52.79L69.55,52.79z"/>
	<path d="M83.49,53.99v-1.1c-0.6,0.68-1.62,1.3-2.78,1.3c-1.63,0-2.49-0.8-2.49-2.5v-5.54h1.21v5.16c0,1.38,0.7,1.79,1.75,1.79
		c0.95,0,1.86-0.55,2.31-1.19v-5.76h1.21V54L83.49,53.99L83.49,53.99z"/>
	<path d="M86.97,52.08c0.52,0.6,1.5,1.12,2.57,1.12c1.2,0,1.84-0.54,1.84-1.3c0-0.86-0.95-1.14-2-1.4
		c-1.33-0.31-2.83-0.67-2.83-2.29c0-1.22,1.05-2.26,2.91-2.26c1.33,0,2.26,0.5,2.89,1.14l-0.57,0.84c-0.47-0.57-1.33-0.99-2.33-0.99
		c-1.07,0-1.73,0.49-1.73,1.19c0,0.76,0.89,1.01,1.91,1.25c1.36,0.31,2.93,0.7,2.93,2.44c0,1.32-1.05,2.37-3.07,2.37
		c-1.28,0-2.36-0.39-3.15-1.23L86.97,52.08L86.97,52.08z"/>
	<path d="M94.14,44.01c0-0.45,0.37-0.81,0.81-0.81c0.44,0,0.82,0.36,0.82,0.81s-0.37,0.83-0.82,0.83
		C94.49,44.84,94.14,44.46,94.14,44.01z M94.35,53.99v-7.84h1.21v7.84L94.35,53.99L94.35,53.99z"/>
	<path d="M103.09,53.99v-5.13c0-1.38-0.7-1.82-1.75-1.82c-0.95,0-1.86,0.58-2.31,1.22v5.73h-1.21v-7.84h1.21v1.14
		c0.55-0.65,1.62-1.33,2.78-1.33c1.63,0,2.49,0.83,2.49,2.53v5.5L103.09,53.99L103.09,53.99z"/>
	<path d="M109.95,45.96c2.36,0,3.75,1.85,3.75,4.2v0.31h-6.32c0.1,1.48,1.13,2.71,2.81,2.71c0.89,0,1.79-0.36,2.41-0.99l0.58,0.8
		c-0.78,0.78-1.83,1.2-3.1,1.2c-2.31,0-3.98-1.67-3.98-4.12C106.1,47.79,107.72,45.96,109.95,45.96L109.95,45.96z M107.38,49.58
		h5.12c-0.02-1.17-0.79-2.61-2.57-2.61C108.27,46.96,107.45,48.38,107.38,49.58z"/>
	<path d="M115.43,52.08c0.52,0.6,1.5,1.12,2.57,1.12c1.2,0,1.84-0.54,1.84-1.3c0-0.86-0.95-1.14-2-1.4
		c-1.33-0.31-2.83-0.67-2.83-2.29c0-1.22,1.05-2.26,2.91-2.26c1.33,0,2.26,0.5,2.89,1.14l-0.57,0.84c-0.47-0.57-1.33-0.99-2.33-0.99
		c-1.07,0-1.73,0.49-1.73,1.19c0,0.76,0.89,1.01,1.91,1.25c1.36,0.31,2.93,0.7,2.93,2.44c0,1.32-1.05,2.37-3.07,2.37
		c-1.28,0-2.36-0.39-3.15-1.23L115.43,52.08L115.43,52.08z"/>
	<path d="M122.84,52.08c0.52,0.6,1.5,1.12,2.57,1.12c1.2,0,1.84-0.54,1.84-1.3c0-0.86-0.95-1.14-2-1.4
		c-1.33-0.31-2.83-0.67-2.83-2.29c0-1.22,1.05-2.26,2.91-2.26c1.33,0,2.26,0.5,2.89,1.14l-0.57,0.84c-0.47-0.57-1.33-0.99-2.33-0.99
		c-1.07,0-1.73,0.49-1.73,1.19c0,0.76,0.89,1.01,1.91,1.25c1.36,0.31,2.93,0.7,2.93,2.44c0,1.32-1.05,2.37-3.07,2.37
		c-1.28,0-2.36-0.39-3.15-1.23L122.84,52.08L122.84,52.08z"/>
</g>
</svg>
